<mxfile host="app.diagrams.net" modified="2024-01-25T17:07:19.580Z" agent="Mozilla/5.0 (Windows NT 10.0; Win64; x64) AppleWebKit/537.36 (KHTML, like Gecko) Chrome/120.0.0.0 Safari/537.36" etag="c3HNpw003Van3alfGyyv" version="23.0.2" type="github">
  <diagram name="Page-1" id="RrQH4FCPjxlWCAPOjGak">
    <mxGraphModel dx="880" dy="434" grid="1" gridSize="10" guides="1" tooltips="1" connect="1" arrows="1" fold="1" page="1" pageScale="1" pageWidth="850" pageHeight="1100" math="0" shadow="0">
      <root>
        <mxCell id="0" />
        <mxCell id="1" parent="0" />
        <mxCell id="42GkFzIWLYjsZZ0ApfM1-14" value="" style="whiteSpace=wrap;html=1;" vertex="1" parent="1">
          <mxGeometry x="90" y="30" width="120" height="140" as="geometry" />
        </mxCell>
        <mxCell id="42GkFzIWLYjsZZ0ApfM1-15" value="&lt;font style=&quot;font-size: 19px;&quot;&gt;SAM Template&lt;/font&gt;" style="text;strokeColor=none;align=center;fillColor=none;html=1;verticalAlign=middle;whiteSpace=wrap;rounded=0;" vertex="1" parent="1">
          <mxGeometry x="120" y="85" width="60" height="30" as="geometry" />
        </mxCell>
        <mxCell id="42GkFzIWLYjsZZ0ApfM1-16" value="" style="outlineConnect=0;dashed=0;verticalLabelPosition=bottom;verticalAlign=top;align=center;html=1;shape=mxgraph.aws3.ecr_registry;fillColor=#F58534;gradientColor=none;" vertex="1" parent="1">
          <mxGeometry x="370" y="30" width="137" height="140" as="geometry" />
        </mxCell>
        <mxCell id="42GkFzIWLYjsZZ0ApfM1-18" value="" style="verticalLabelPosition=bottom;html=1;verticalAlign=top;align=center;strokeColor=none;fillColor=#00BEF2;shape=mxgraph.azure.sql_database;" vertex="1" parent="1">
          <mxGeometry x="680" y="30" width="95" height="140" as="geometry" />
        </mxCell>
        <mxCell id="42GkFzIWLYjsZZ0ApfM1-20" value="AWS Serverless Application Repository" style="sketch=0;outlineConnect=0;fontColor=#232F3E;gradientColor=none;strokeColor=#ffffff;fillColor=#232F3E;dashed=0;verticalLabelPosition=middle;verticalAlign=bottom;align=center;html=1;whiteSpace=wrap;fontSize=10;fontStyle=1;spacing=3;shape=mxgraph.aws4.productIcon;prIcon=mxgraph.aws4.serverless_application_repository;" vertex="1" parent="1">
          <mxGeometry x="90" y="270" width="130" height="180" as="geometry" />
        </mxCell>
        <mxCell id="42GkFzIWLYjsZZ0ApfM1-21" value="Amazon ECS" style="sketch=0;outlineConnect=0;fontColor=#232F3E;gradientColor=none;strokeColor=#ffffff;fillColor=#232F3E;dashed=0;verticalLabelPosition=middle;verticalAlign=bottom;align=center;html=1;whiteSpace=wrap;fontSize=10;fontStyle=1;spacing=3;shape=mxgraph.aws4.productIcon;prIcon=mxgraph.aws4.ecs;" vertex="1" parent="1">
          <mxGeometry x="380" y="270" width="137" height="180" as="geometry" />
        </mxCell>
        <mxCell id="42GkFzIWLYjsZZ0ApfM1-22" value="" style="outlineConnect=0;dashed=0;verticalLabelPosition=bottom;verticalAlign=top;align=center;html=1;shape=mxgraph.aws3.api_gateway;fillColor=#D9A741;gradientColor=none;" vertex="1" parent="1">
          <mxGeometry x="90" y="580" width="130" height="160" as="geometry" />
        </mxCell>
        <mxCell id="42GkFzIWLYjsZZ0ApfM1-23" value="" style="sketch=0;points=[[0,0,0],[0.25,0,0],[0.5,0,0],[0.75,0,0],[1,0,0],[0,1,0],[0.25,1,0],[0.5,1,0],[0.75,1,0],[1,1,0],[0,0.25,0],[0,0.5,0],[0,0.75,0],[1,0.25,0],[1,0.5,0],[1,0.75,0]];outlineConnect=0;fontColor=#232F3E;fillColor=#ED7100;strokeColor=#ffffff;dashed=0;verticalLabelPosition=bottom;verticalAlign=top;align=center;html=1;fontSize=12;fontStyle=0;aspect=fixed;shape=mxgraph.aws4.resourceIcon;resIcon=mxgraph.aws4.ecs_anywhere;" vertex="1" parent="1">
          <mxGeometry x="650" y="593" width="147" height="147" as="geometry" />
        </mxCell>
        <mxCell id="42GkFzIWLYjsZZ0ApfM1-26" value="" style="sketch=0;outlineConnect=0;fontColor=#232F3E;gradientColor=none;fillColor=#ED7100;strokeColor=none;dashed=0;verticalLabelPosition=bottom;verticalAlign=top;align=center;html=1;fontSize=12;fontStyle=0;aspect=fixed;pointerEvents=1;shape=mxgraph.aws4.container_1;" vertex="1" parent="1">
          <mxGeometry x="360" y="911.27" width="157" height="101.4" as="geometry" />
        </mxCell>
        <mxCell id="42GkFzIWLYjsZZ0ApfM1-27" value="" style="whiteSpace=wrap;html=1;" vertex="1" parent="1">
          <mxGeometry x="388.5" y="945.99" width="101.5" height="24.01" as="geometry" />
        </mxCell>
        <mxCell id="42GkFzIWLYjsZZ0ApfM1-28" value="Flask App" style="text;strokeColor=none;align=center;fillColor=none;html=1;verticalAlign=middle;whiteSpace=wrap;rounded=0;" vertex="1" parent="1">
          <mxGeometry x="405" y="943" width="60" height="30" as="geometry" />
        </mxCell>
        <mxCell id="42GkFzIWLYjsZZ0ApfM1-29" value="" style="shape=singleArrow;direction=south;whiteSpace=wrap;html=1;" vertex="1" parent="1">
          <mxGeometry x="120" y="170" width="60" height="100" as="geometry" />
        </mxCell>
        <mxCell id="42GkFzIWLYjsZZ0ApfM1-30" value="" style="shape=singleArrow;direction=south;whiteSpace=wrap;html=1;" vertex="1" parent="1">
          <mxGeometry x="418.5" y="160" width="60" height="100" as="geometry" />
        </mxCell>
        <mxCell id="42GkFzIWLYjsZZ0ApfM1-31" value="" style="shape=singleArrow;direction=south;whiteSpace=wrap;html=1;" vertex="1" parent="1">
          <mxGeometry x="120" y="450" width="60" height="100" as="geometry" />
        </mxCell>
        <mxCell id="42GkFzIWLYjsZZ0ApfM1-33" value="" style="shape=singleArrow;direction=north;whiteSpace=wrap;html=1;" vertex="1" parent="1">
          <mxGeometry x="697.5" y="180" width="60" height="410" as="geometry" />
        </mxCell>
        <mxCell id="42GkFzIWLYjsZZ0ApfM1-34" value="" style="shape=link;html=1;rounded=0;" edge="1" parent="1" source="42GkFzIWLYjsZZ0ApfM1-22" target="42GkFzIWLYjsZZ0ApfM1-23">
          <mxGeometry width="100" relative="1" as="geometry">
            <mxPoint x="370" y="680" as="sourcePoint" />
            <mxPoint x="470" y="680" as="targetPoint" />
            <Array as="points" />
          </mxGeometry>
        </mxCell>
        <mxCell id="42GkFzIWLYjsZZ0ApfM1-35" value="" style="shape=doubleArrow;direction=south;whiteSpace=wrap;html=1;" vertex="1" parent="1">
          <mxGeometry x="400" y="460" width="60" height="450" as="geometry" />
        </mxCell>
      </root>
    </mxGraphModel>
  </diagram>
</mxfile>
